<?xml version="1.0" ?><!DOCTYPE svg  PUBLIC '-//W3C//DTD SVG 1.1//EN'  'http://www.w3.org/Graphics/SVG/1.1/DTD/svg11.dtd'>
<svg width="512px" height="512px" viewBox="0 0 512 512" style="enable-background:new 0 0 512 512;" version="1.1" xml:space="preserve"
    xmlns="http://www.w3.org/2000/svg"
    xmlns:xlink="http://www.w3.org/1999/xlink">
    <g id="_x37_18-_menu__x2C__user_interface__x2C__ui__x2C_">
        <g>
            <g>
                <path fill="#ffffff" d="M229.222,235.922h-202.5c-3.705,0-6.708-3.003-6.708-6.708V26.814c0-3.705,3.003-6.708,6.708-6.708h202.5     c3.705,0,6.708,3.003,6.708,6.708v202.399C235.93,232.919,232.927,235.922,229.222,235.922z M33.431,222.506h189.083V33.522     H33.431V222.506z"/>
            </g>
            <g>
                <path fill="#ffffff" d="M486.227,492.847H283.729c-3.705,0-6.709-3.003-6.709-6.708V283.74c0-3.705,3.004-6.708,6.709-6.708h202.498     c3.705,0,6.708,3.003,6.708,6.708v202.398C492.935,489.844,489.932,492.847,486.227,492.847z M290.437,479.431h189.082V290.448     H290.437V479.431z"/>
            </g>
            <g>
                <path fill="#ffffff" d="M486.227,235.922H283.729c-3.705,0-6.709-3.003-6.709-6.708V26.814c0-3.705,3.004-6.708,6.709-6.708h202.498     c3.705,0,6.708,3.003,6.708,6.708v202.399C492.935,232.919,489.932,235.922,486.227,235.922z M290.437,222.506h189.082V33.522     H290.437V222.506z"/>
            </g>
            <g>
                <path fill="#ffffff" d="M229.222,492.847h-202.5c-3.705,0-6.708-3.003-6.708-6.708V283.74c0-3.705,3.003-6.708,6.708-6.708h202.5     c3.705,0,6.708,3.003,6.708,6.708v202.398C235.93,489.844,232.927,492.847,229.222,492.847z M33.431,479.431h189.083V290.448     H33.431V479.431z"/>
            </g>
        </g>
    </g>
    <g id="Layer_1"/>
</svg>